<svg width="77" height="77" viewBox="0 0 77 77" fill="none" xmlns="http://www.w3.org/2000/svg">
<path d="M61.4332 9.53196C60.861 8.5844 60.0545 7.80006 59.0914 7.25445C58.1283 6.70884 57.041 6.42032 55.9341 6.41667H21.0659C18.8265 6.41667 16.7186 7.61017 15.5668 9.53196L6.87546 24.0144C6.57545 24.5133 6.41686 25.0845 6.41667 25.6667C6.42948 28.7634 7.57005 31.7494 9.62501 34.0661V60.9583C9.62501 64.4971 12.5029 67.375 16.0417 67.375H60.9583C64.4971 67.375 67.375 64.4971 67.375 60.9583V34.0661C69.43 31.7494 70.5705 28.7634 70.5833 25.6667C70.5832 25.0845 70.4246 24.5133 70.1245 24.0144L61.4332 9.53196ZM64.1153 26.472C63.9193 28.0218 63.1645 29.447 61.9926 30.48C60.8208 31.5131 59.3122 32.0832 57.75 32.0833C54.2112 32.0833 51.3333 29.2055 51.3333 25.6667C51.3333 25.4485 51.2531 25.256 51.2082 25.0507L51.2724 25.0378L48.8308 12.8333H55.9341L64.1153 26.472ZM34.711 12.8333H42.2858L44.8942 25.8752C44.7819 29.3145 41.965 32.0833 38.5 32.0833C35.035 32.0833 32.2181 29.3145 32.1058 25.8752L34.711 12.8333ZM21.0659 12.8333H28.1692L25.7308 25.0378L25.795 25.0507C25.7469 25.256 25.6667 25.4485 25.6667 25.6667C25.6667 29.2055 22.7888 32.0833 19.25 32.0833C17.6878 32.0832 16.1793 31.5131 15.0074 30.48C13.8355 29.447 13.0807 28.0218 12.8847 26.472L21.0659 12.8333ZM32.0833 60.9583V51.3333H44.9167V60.9583H32.0833ZM51.3333 60.9583V51.3333C51.3333 47.7945 48.4555 44.9167 44.9167 44.9167H32.0833C28.5445 44.9167 25.6667 47.7945 25.6667 51.3333V60.9583H16.0417V38.0444C17.0715 38.3107 18.1335 38.5 19.25 38.5C21.0714 38.4989 22.8717 38.1101 24.5312 37.3594C26.1908 36.6088 27.6715 35.5135 28.875 34.1463C31.2267 36.8156 34.6725 38.5 38.5 38.5C42.3275 38.5 45.7733 36.8156 48.125 34.1463C49.3285 35.5135 50.8092 36.6088 52.4688 37.3594C54.1283 38.1101 55.9286 38.4989 57.75 38.5C58.8665 38.5 59.9285 38.3107 60.9583 38.0444V60.9583H51.3333Z" fill="#757575"/>
</svg>
