<svg width="47" height="45" viewBox="0 0 47 45" fill="none" xmlns="http://www.w3.org/2000/svg">
<path d="M39.8808 2.80852C39.4721 2.13169 38.8961 1.57145 38.2082 1.18173C37.5202 0.792009 36.7436 0.585925 35.9529 0.583313H11.0471C9.4475 0.583313 7.94188 1.43581 7.11917 2.80852L0.911044 13.1531C0.69675 13.5095 0.583467 13.9175 0.583336 14.3333C0.592488 16.5453 1.40718 18.6781 2.875 20.3329V39.5416C2.875 42.0694 4.93063 44.125 7.45834 44.125H39.5417C42.0694 44.125 44.125 42.0694 44.125 39.5416V20.3329C45.5928 18.6781 46.4075 16.5453 46.4167 14.3333C46.4165 13.9175 46.3033 13.5095 46.089 13.1531L39.8808 2.80852ZM41.7967 14.9085C41.6566 16.0156 41.1175 17.0335 40.2805 17.7714C39.4434 18.5093 38.3659 18.9165 37.25 18.9166C34.7223 18.9166 32.6667 16.861 32.6667 14.3333C32.6667 14.1775 32.6094 14.04 32.5773 13.8933L32.6231 13.8841L30.8792 5.16665H35.9529L41.7967 14.9085ZM20.7935 5.16665H26.2042L28.0673 14.4823C27.9871 16.9389 25.975 18.9166 23.5 18.9166C21.025 18.9166 19.0129 16.9389 18.9327 14.4823L20.7935 5.16665ZM11.0471 5.16665H16.1208L14.3792 13.8841L14.425 13.8933C14.3906 14.04 14.3333 14.1775 14.3333 14.3333C14.3333 16.861 12.2777 18.9166 9.75 18.9166C8.63412 18.9165 7.55661 18.5093 6.71955 17.7714C5.88249 17.0335 5.34338 16.0156 5.20334 14.9085L11.0471 5.16665ZM18.9167 39.5416V32.6666H28.0833V39.5416H18.9167ZM32.6667 39.5416V32.6666C32.6667 30.1389 30.611 28.0833 28.0833 28.0833H18.9167C16.389 28.0833 14.3333 30.1389 14.3333 32.6666V39.5416H7.45834V23.1746C8.19396 23.3648 8.9525 23.5 9.75 23.5C11.051 23.4992 12.3369 23.2215 13.5223 22.6853C14.7077 22.1491 15.7654 21.3667 16.625 20.3902C18.3048 22.2969 20.766 23.5 23.5 23.5C26.234 23.5 28.6952 22.2969 30.375 20.3902C31.2346 21.3667 32.2923 22.1491 33.4777 22.6853C34.6631 23.2215 35.949 23.4992 37.25 23.5C38.0475 23.5 38.806 23.3648 39.5417 23.1746V39.5416H32.6667Z" fill="white"/>
</svg>
